<svg width="1280" height="720" xmlns="http://www.w3.org/2000/svg" xmlns:xlink="http://www.w3.org/1999/xlink" overflow="hidden"><defs><clipPath id="clip0"><rect x="0" y="0" width="1280" height="720"/></clipPath></defs><g clip-path="url(#clip0)"><rect x="0" y="0" width="1280" height="720" fill="#FFFFFF"/><rect x="209.5" y="207.5" width="766" height="29" stroke="#F2F2F2" stroke-width="1.33333" stroke-miterlimit="8" fill="#F2F2F2"/><rect x="209.5" y="154.5" width="766" height="29" stroke="#F2F2F2" stroke-width="1.33333" stroke-miterlimit="8" fill="#F2F2F2"/><rect x="209.5" y="101.5" width="766" height="29" stroke="#F2F2F2" stroke-width="1.33333" stroke-miterlimit="8" fill="#F2F2F2"/><rect x="209.5" y="47.5001" width="766" height="30" stroke="#F2F2F2" stroke-width="1.33333" stroke-miterlimit="8" fill="#F2F2F2"/><rect x="209.5" y="260.5" width="766" height="30" stroke="#F2F2F2" stroke-width="1.33333" stroke-miterlimit="8" fill="#F2F2F2"/><rect x="209.5" y="573.5" width="766" height="30" stroke="#F2F2F2" stroke-width="1.33333" stroke-miterlimit="8" fill="#F2F2F2"/><rect x="209.5" y="520.5" width="766" height="30" stroke="#F2F2F2" stroke-width="1.33333" stroke-miterlimit="8" fill="#F2F2F2"/><rect x="209.5" y="467.5" width="766" height="30" stroke="#F2F2F2" stroke-width="1.33333" stroke-miterlimit="8" fill="#F2F2F2"/><rect x="209.5" y="414.5" width="766" height="30" stroke="#F2F2F2" stroke-width="1.33333" stroke-miterlimit="8" fill="#F2F2F2"/><rect x="209.5" y="627.5" width="766" height="29" stroke="#F2F2F2" stroke-width="1.33333" stroke-miterlimit="8" fill="#F2F2F2"/><rect x="1060.5" y="207.5" width="220" height="29" stroke="#F2F2F2" stroke-width="1.33333" stroke-miterlimit="8" fill="#F2F2F2"/><rect x="1060.5" y="154.5" width="220" height="29" stroke="#F2F2F2" stroke-width="1.33333" stroke-miterlimit="8" fill="#F2F2F2"/><rect x="1060.5" y="101.5" width="220" height="29" stroke="#F2F2F2" stroke-width="1.33333" stroke-miterlimit="8" fill="#F2F2F2"/><rect x="1060.5" y="47.5001" width="220" height="30" stroke="#F2F2F2" stroke-width="1.33333" stroke-miterlimit="8" fill="#F2F2F2"/><rect x="1060.5" y="260.5" width="220" height="30" stroke="#F2F2F2" stroke-width="1.33333" stroke-miterlimit="8" fill="#F2F2F2"/><rect x="1060.5" y="572.5" width="220" height="30" stroke="#F2F2F2" stroke-width="1.33333" stroke-miterlimit="8" fill="#F2F2F2"/><rect x="1060.5" y="519.5" width="220" height="30" stroke="#F2F2F2" stroke-width="1.33333" stroke-miterlimit="8" fill="#F2F2F2"/><rect x="1060.5" y="466.5" width="220" height="30" stroke="#F2F2F2" stroke-width="1.33333" stroke-miterlimit="8" fill="#F2F2F2"/><rect x="1060.5" y="413.5" width="220" height="30" stroke="#F2F2F2" stroke-width="1.33333" stroke-miterlimit="8" fill="#F2F2F2"/><rect x="1060.5" y="625.5" width="220" height="30" stroke="#F2F2F2" stroke-width="1.33333" stroke-miterlimit="8" fill="#F2F2F2"/><rect x="-1.50005" y="207.5" width="124" height="29" stroke="#F2F2F2" stroke-width="1.33333" stroke-miterlimit="8" fill="#F2F2F2"/><rect x="-1.50005" y="154.5" width="124" height="29" stroke="#F2F2F2" stroke-width="1.33333" stroke-miterlimit="8" fill="#F2F2F2"/><rect x="-1.50005" y="101.5" width="124" height="29" stroke="#F2F2F2" stroke-width="1.33333" stroke-miterlimit="8" fill="#F2F2F2"/><rect x="-1.50005" y="47.5001" width="124" height="30" stroke="#F2F2F2" stroke-width="1.33333" stroke-miterlimit="8" fill="#F2F2F2"/><rect x="-1.50005" y="260.5" width="124" height="30" stroke="#F2F2F2" stroke-width="1.33333" stroke-miterlimit="8" fill="#F2F2F2"/><rect x="0.500053" y="573.5" width="124" height="30" stroke="#F2F2F2" stroke-width="1.33333" stroke-miterlimit="8" fill="#F2F2F2"/><rect x="0.500053" y="520.5" width="124" height="30" stroke="#F2F2F2" stroke-width="1.33333" stroke-miterlimit="8" fill="#F2F2F2"/><rect x="0.500053" y="467.5" width="124" height="30" stroke="#F2F2F2" stroke-width="1.33333" stroke-miterlimit="8" fill="#F2F2F2"/><rect x="0.500053" y="414.5" width="124" height="29" stroke="#F2F2F2" stroke-width="1.33333" stroke-miterlimit="8" fill="#F2F2F2"/><rect x="0.500053" y="626.5" width="124" height="30" stroke="#F2F2F2" stroke-width="1.33333" stroke-miterlimit="8" fill="#F2F2F2"/><rect x="305" y="493" width="175" height="112" fill="#219EBC"/><text font-family="Calibri,Calibri_MSFontService,sans-serif" font-weight="400" font-size="32" transform="translate(323.913 541)">degrees of <tspan font-size="32" x="12.5867" y="38">freedom</tspan></text><rect x="704" y="488" width="176" height="65" fill="#FA8600"/><text font-family="Calibri,Calibri_MSFontService,sans-serif" font-weight="400" font-size="32" transform="translate(743.81 531)">p<tspan font-size="32" x="16.8333" y="0">-</tspan><tspan font-size="32" x="26.6666" y="0">value</tspan><tspan fill="#8ECAE4" font-size="64" x="-407.071" y="-158">t</tspan><tspan fill="#219EBC" font-size="64" x="-385.571" y="-158">(28) </tspan><tspan fill="#FFB701" font-size="64" x="-267.404" y="-158">= 2.20</tspan><tspan fill="#003046" font-size="64" x="-107.404" y="-158">, </tspan><tspan fill="#FA8600" font-size="64" x="-76.9039" y="-158">p = .036</tspan></text><rect x="172" y="96" width="242" height="138" fill="#8ECAE4"/><text font-family="Calibri,Calibri_MSFontService,sans-serif" font-weight="400" font-size="32" transform="translate(235.72 129)">test type<tspan font-style="italic" font-size="21" x="-53.8533" y="54">statcheck also recognizes </tspan><tspan font-style="italic" font-size="21" x="-53.8533" y="80">F, Z, r, </tspan><tspan font-style="italic" font-size="21" x="0.146667" y="80">χ</tspan><tspan font-style="italic" font-size="21" x="9.31334" y="80">2, and </tspan><tspan font-style="italic" font-size="21" x="68.1467" y="80">Q</tspan></text><rect x="591" y="97" width="161" height="69" fill="#FFB701"/><text font-family="Calibri,Calibri_MSFontService,sans-serif" font-weight="400" font-size="32" transform="translate(608.708 143)">test value</text><path d="M2.93085-0.640393 22.9201 90.8433 17.0584 92.1241-2.93085 0.640393ZM29.2592 72.5809 21.2602 97.3004 3.67997 78.1699C2.55887 76.95 2.63901 75.0521 3.85898 73.931 5.07894 72.81 6.97674 72.8901 8.09784 74.1101L22.1982 89.4538 17.135 90.5601 23.5506 70.7336C24.0607 69.1572 25.7521 68.2929 27.3285 68.803 28.9049 69.3131 29.7693 71.0045 29.2592 72.5809Z" fill="#219EBC" transform="matrix(1 0 0 -1 392 493.287)"/><path d="M2.74155-1.21816 63.3216 135.121 57.8385 137.558-2.74155 1.21816ZM65.8484 115.956 62.9977 141.781 41.9214 126.588C40.5774 125.619 40.2732 123.744 41.2421 122.4 42.211 121.056 44.086 120.751 45.43 121.72L62.3344 133.906 57.5982 136.011 59.8847 115.298C60.0665 113.651 61.5489 112.463 63.1957 112.645 64.8426 112.827 66.0302 114.309 65.8484 115.956Z" fill="#FFB701" transform="matrix(-1 0 0 1 671.992 166)"/><path d="M788.685 489.388 751.578 402.641 757.094 400.281 794.201 487.028ZM748.784 421.77 751.995 395.987 772.857 411.472C774.188 412.46 774.466 414.339 773.478 415.669 772.491 417 770.612 417.278 769.281 416.29L752.548 403.87 757.313 401.832 754.738 422.511C754.534 424.155 753.035 425.322 751.391 425.117 749.747 424.913 748.58 423.414 748.784 421.77Z" fill="#FA8600"/><path d="M295.577 232.463 340.9 308.453 335.747 311.526 290.423 235.537ZM341.12 289.123 341.373 315.103 318.634 302.535C317.184 301.733 316.658 299.908 317.459 298.458 318.261 297.008 320.086 296.482 321.536 297.283L339.774 307.364 335.323 310.019 335.121 289.181C335.105 287.524 336.435 286.168 338.091 286.152 339.748 286.136 341.104 287.466 341.12 289.123Z" fill="#8ECAE4"/></g></svg>